<svg xmlns="http://www.w3.org/2000/svg" version="1.1" xmlns:xlink="http://www.w3.org/1999/xlink" xmlns:svgjs="http://svgjs.dev/svgjs" width="1500" height="1500" viewBox="0 0 1500 1500"><rect width="1500" height="1500" fill="#36454f"></rect><g transform="matrix(0.6666666666666666,0,0,0.6666666666666666,249.39393939393938,571.4139665891337)"><svg viewBox="0 0 396 141" data-background-color="#36454f" preserveAspectRatio="xMidYMid meet" height="534" width="1500" xmlns="http://www.w3.org/2000/svg" xmlns:xlink="http://www.w3.org/1999/xlink"><g id="tight-bounds" transform="matrix(1,0,0,1,0.2400000000000091,0.23210873857343017)"><svg viewBox="0 0 395.52 140.53578252285308" height="140.53578252285308" width="395.52"><g><svg viewBox="0 0 397.4976 141.23846143546734" height="140.53578252285308" width="395.52"><g><rect width="397.4976" height="4.325947531040927" x="0" y="77.61844948987255" fill="#ffffff" opacity="1" stroke-width="0" stroke="transparent" fill-opacity="1" class="rect-yte-0" data-fill-palette-color="secondary" rx="1%" id="yte-0" data-palette-color="#ffffff"></rect></g><g transform="matrix(1,0,0,1,0.9887999999999693,93.2688669974604)"><svg viewBox="0 0 395.52000000000004 47.96959443800695" height="47.96959443800695" width="395.52000000000004"><g id="textblocktransform"><svg viewBox="0 0 395.52000000000004 47.96959443800695" height="47.96959443800695" width="395.52000000000004" id="textblock"><g><svg viewBox="0 0 395.52000000000004 47.96959443800695" height="47.96959443800695" width="395.52000000000004"><g transform="matrix(1,0,0,1,0,0)"><svg width="395.52000000000004" viewBox="0.35 -36.95 388.32 47.1" height="47.96959443800695" data-palette-color="#e2725b"><path d="M10.15 0.3L10.15 0.3Q6.8 0.3 4.63-0.85 2.45-2 1.4-3.8 0.35-5.6 0.35-7.5L0.35-7.5Q0.35-9.35 1.25-11.03 2.15-12.7 3.83-13.8 5.5-14.9 7.8-14.9L7.8-14.9Q7.75-14.45 7.75-14.08 7.75-13.7 7.75-13.7L7.75-13.7Q7.75-10.35 8.4-8.43 9.05-6.5 10.05-5.68 11.05-4.85 12.1-4.85L12.1-4.85Q13.7-4.85 14.95-6.13 16.2-7.4 16.2-9.1L16.2-9.1Q16.2-11 14.58-12.45 12.95-13.9 10.45-15.65L10.45-15.65Q9.05-16.7 7.48-18.03 5.9-19.35 4.8-21.18 3.7-23 3.7-25.5L3.7-25.5Q3.7-28.1 4.93-30.1 6.15-32.1 8.18-33.48 10.2-34.85 12.63-35.58 15.05-36.3 17.45-36.3L17.45-36.3Q20.4-36.3 22.3-35.35 24.2-34.4 25.15-32.9 26.1-31.4 26.1-29.8L26.1-29.8Q26.1-28.3 25.28-26.93 24.45-25.55 22.85-24.7 21.25-23.85 18.9-23.85L18.9-23.85Q19.05-24.55 19.1-25.13 19.15-25.7 19.15-26.15L19.15-26.15Q19.15-28.65 18.07-29.73 17-30.8 15.7-30.8L15.7-30.8Q14.45-30.8 13.3-29.88 12.15-28.95 12.15-26.9L12.15-26.9Q12.15-25.15 13.08-23.9 14-22.65 15.48-21.7 16.95-20.75 18.6-19.85L18.6-19.85Q20.3-18.95 21.88-17.88 23.45-16.8 24.5-15.35 25.55-13.9 25.55-11.7L25.55-11.7Q25.55-9.4 24.3-7.23 23.05-5.05 20.9-3.38 18.75-1.7 15.98-0.7 13.2 0.3 10.15 0.3ZM46.85 0.25L46.85 0.25Q45.1 0.25 43.8-0.9 42.5-2.05 42.5-4.65L42.5-4.65Q42.5-4.9 42.5-5.15 42.5-5.4 42.55-5.65L42.55-5.65Q41.05-2.65 39.17-1.23 37.3 0.2 35.4 0.2L35.4 0.2Q33.65 0.2 32.1-1.03 30.55-2.25 29.6-4.65 28.65-7.05 28.65-10.45L28.65-10.45Q28.65-13.95 29.62-16.7 30.6-19.45 32.2-21.35 33.8-23.25 35.7-24.23 37.6-25.2 39.4-25.2L39.4-25.2Q41.4-25.2 43-23.98 44.6-22.75 45.2-20.1L45.2-20.1Q45.35-20.95 45.42-21.65 45.5-22.35 45.5-22.6L45.5-22.6Q45.55-23.95 46.87-24.6 48.2-25.25 49.8-25.25L49.8-25.25Q51.2-25.25 52.45-24.7 53.7-24.15 54.15-22.85L54.15-22.85 54.25-22.55Q53.65-21.2 53.05-19.3 52.45-17.4 51.95-15.33 51.45-13.25 51.15-11.28 50.85-9.3 50.85-7.8L50.85-7.8Q50.85-6.15 51.2-5.53 51.55-4.9 52.05-4.9L52.05-4.9Q52.9-4.9 53.6-6.1L53.6-6.1 54-5.9Q54-4.2 52.9-2.8 51.8-1.4 50.15-0.58 48.5 0.25 46.85 0.25ZM38.7-6.1L38.7-6.1Q40-6.1 41.57-8.43 43.15-10.75 44.3-15.1L44.3-15.1Q44.4-15.55 44.5-15.98 44.6-16.4 44.65-16.8L44.65-16.8Q43.85-18.65 42.97-19.43 42.1-20.2 41.25-20.2L41.25-20.2Q40-20.2 38.92-18.88 37.85-17.55 37.17-15.55 36.5-13.55 36.5-11.55L36.5-11.55Q36.5-8.8 37.12-7.45 37.75-6.1 38.7-6.1ZM62.1 10.15L62.1 10.15Q60.65 10.15 59.35 9.63 58.05 9.1 57.55 8.05L57.55 8.05Q58.75 2.95 59.52-1 60.3-4.95 60.75-8.05 61.2-11.15 61.4-13.73 61.6-16.3 61.65-18.7L61.65-18.7Q59.95-18.6 58.4-18.38 56.85-18.15 55.7-17.75L55.7-17.75 55.6-18.1Q57.05-19.55 58.6-20.53 60.15-21.5 61.7-22.1L61.7-22.1 61.7-25.9Q61.7-29.75 63.25-32.18 64.8-34.6 67.22-35.77 69.65-36.95 72.25-36.95L72.25-36.95Q75.7-36.95 77.42-35.3 79.15-33.65 79.15-31.6L79.15-31.6Q79.15-30.1 78.22-28.7 77.3-27.3 75.45-26.38 73.59-25.45 70.8-25.45L70.8-25.45Q71.59-26.9 72.02-28.35 72.45-29.8 72.45-30.9L72.45-30.9Q72.45-31.75 72.2-32.27 71.95-32.8 71.5-32.8L71.5-32.8Q70.55-32.8 69.67-30.43 68.8-28.05 68.8-24.2L68.8-24.2 68.8-23.25Q70.25-23.3 71.57-23.2 72.9-23.1 74.05-23L74.05-23Q74.15-22.65 74.2-22.25 74.25-21.85 74.25-21.45L74.25-21.45Q74.25-20.7 74.05-19.95 73.84-19.2 73.5-18.4L73.5-18.4Q72.59-18.5 71.45-18.6 70.3-18.7 69-18.75L69-18.75 69-17.65Q69-14.9 68.77-11.3 68.55-7.7 67.95-2.75 67.34 2.2 66.09 9.05L66.09 9.05Q64.55 10.15 62.1 10.15ZM94.94 0.25L94.94 0.25Q93.19 0.25 91.89-0.9 90.59-2.05 90.59-4.65L90.59-4.65Q90.59-4.9 90.59-5.15 90.59-5.4 90.64-5.65L90.64-5.65Q89.14-2.65 87.27-1.23 85.39 0.2 83.49 0.2L83.49 0.2Q81.74 0.2 80.19-1.03 78.64-2.25 77.69-4.65 76.74-7.05 76.74-10.45L76.74-10.45Q76.74-13.95 77.72-16.7 78.69-19.45 80.29-21.35 81.89-23.25 83.79-24.23 85.69-25.2 87.49-25.2L87.49-25.2Q89.49-25.2 91.09-23.98 92.69-22.75 93.29-20.1L93.29-20.1Q93.44-20.95 93.52-21.65 93.59-22.35 93.59-22.6L93.59-22.6Q93.64-23.95 94.97-24.6 96.29-25.25 97.89-25.25L97.89-25.25Q99.29-25.25 100.54-24.7 101.79-24.15 102.24-22.85L102.24-22.85 102.34-22.55Q101.74-21.2 101.14-19.3 100.54-17.4 100.04-15.33 99.54-13.25 99.24-11.28 98.94-9.3 98.94-7.8L98.94-7.8Q98.94-6.15 99.29-5.53 99.64-4.9 100.14-4.9L100.14-4.9Q100.99-4.9 101.69-6.1L101.69-6.1 102.09-5.9Q102.09-4.2 100.99-2.8 99.89-1.4 98.24-0.58 96.59 0.25 94.94 0.25ZM86.79-6.1L86.79-6.1Q88.09-6.1 89.67-8.43 91.24-10.75 92.39-15.1L92.39-15.1Q92.49-15.55 92.59-15.98 92.69-16.4 92.74-16.8L92.74-16.8Q91.94-18.65 91.07-19.43 90.19-20.2 89.34-20.2L89.34-20.2Q88.09-20.2 87.02-18.88 85.94-17.55 85.27-15.55 84.59-13.55 84.59-11.55L84.59-11.55Q84.59-8.8 85.22-7.45 85.84-6.1 86.79-6.1ZM110.79 0.2L110.79 0.2Q108.99 0.2 107.59-1.28 106.19-2.75 106.19-5.45L106.19-5.45Q106.19-6.75 106.49-8.4 106.79-10.05 107.19-11.78 107.59-13.5 107.89-15.03 108.19-16.55 108.19-17.55L108.19-17.55Q108.19-18.6 107.82-19.23 107.44-19.85 106.84-19.85L106.84-19.85Q105.89-19.85 104.89-18.55L104.89-18.55 104.59-18.75Q104.54-19.55 104.94-20.65 105.34-21.75 106.19-22.78 107.04-23.8 108.37-24.5 109.69-25.2 111.49-25.2L111.49-25.2Q114.14-25.2 115.34-23.68 116.54-22.15 116.54-20L116.54-20Q116.54-19.65 116.52-19.28 116.49-18.9 116.44-18.55L116.44-18.55Q118.24-21.8 120.22-23.53 122.19-25.25 123.89-25.25L123.89-25.25Q125.49-25.25 126.24-24 126.99-22.75 126.99-21L126.99-21Q126.99-19.4 126.37-17.75 125.74-16.1 124.52-15.03 123.29-13.95 121.54-14L121.54-14 121.34-14.1Q121.29-15.4 120.49-16.15 119.69-16.9 118.69-16.9L118.69-16.9Q117.34-16.9 116.17-15.55 114.99-14.2 114.99-11.65L114.99-11.65Q114.99-10.1 115.34-8.3 115.69-6.5 115.69-5.25L115.69-5.25Q115.69-3.75 114.99-2.5 114.29-1.25 113.19-0.53 112.09 0.2 110.79 0.2ZM137.89-26.75L137.89-26.75Q135.89-26.75 134.61-27.98 133.34-29.2 133.34-31.05L133.34-31.05Q133.34-33.05 134.84-34.5 136.34-35.95 138.49-35.95L138.49-35.95Q140.49-35.95 141.76-34.7 143.04-33.45 143.04-31.6L143.04-31.6Q143.04-29.6 141.54-28.18 140.04-26.75 137.89-26.75ZM134.39 0.2L134.39 0.2Q132.44 0.2 130.89-1.18 129.34-2.55 129.34-5.6L129.34-5.6Q129.34-7.35 129.81-8.88 130.29-10.4 130.91-11.85 131.54-13.3 132.01-14.68 132.49-16.05 132.49-17.4L132.49-17.4Q132.49-18.6 132.09-19.13 131.69-19.65 131.14-19.65L131.14-19.65Q130.29-19.65 129.49-18.55L129.49-18.55 129.14-18.75Q129.34-20.75 130.41-22.18 131.49-23.6 133.06-24.4 134.64-25.2 136.19-25.2L136.19-25.2Q138.09-25.2 139.49-23.98 140.89-22.75 140.89-20L140.89-20Q140.89-18.35 140.41-16.53 139.94-14.7 139.31-12.9 138.69-11.1 138.21-9.55 137.74-8 137.74-6.9L137.74-6.9Q137.74-5.95 138.11-5.55 138.49-5.15 138.94-5.15L138.94-5.15Q139.39-5.15 139.81-5.43 140.24-5.7 140.44-6.05L140.44-6.05 140.79-5.95Q140.79-4.1 139.81-2.73 138.84-1.35 137.39-0.58 135.94 0.2 134.39 0.2ZM162.38 0.3L162.38 0.3Q159.03 0.3 156.86-0.85 154.68-2 153.63-3.8 152.58-5.6 152.58-7.5L152.58-7.5Q152.58-9.35 153.48-11.03 154.38-12.7 156.06-13.8 157.73-14.9 160.03-14.9L160.03-14.9Q159.98-14.45 159.98-14.08 159.98-13.7 159.98-13.7L159.98-13.7Q159.98-10.35 160.63-8.43 161.28-6.5 162.28-5.68 163.28-4.85 164.33-4.85L164.33-4.85Q165.93-4.85 167.18-6.13 168.43-7.4 168.43-9.1L168.43-9.1Q168.43-11 166.81-12.45 165.18-13.9 162.68-15.65L162.68-15.65Q161.28-16.7 159.71-18.03 158.13-19.35 157.03-21.18 155.93-23 155.93-25.5L155.93-25.5Q155.93-28.1 157.16-30.1 158.38-32.1 160.41-33.48 162.43-34.85 164.86-35.58 167.28-36.3 169.68-36.3L169.68-36.3Q172.63-36.3 174.53-35.35 176.43-34.4 177.38-32.9 178.33-31.4 178.33-29.8L178.33-29.8Q178.33-28.3 177.51-26.93 176.68-25.55 175.08-24.7 173.48-23.85 171.13-23.85L171.13-23.85Q171.28-24.55 171.33-25.13 171.38-25.7 171.38-26.15L171.38-26.15Q171.38-28.65 170.31-29.73 169.23-30.8 167.93-30.8L167.93-30.8Q166.68-30.8 165.53-29.88 164.38-28.95 164.38-26.9L164.38-26.9Q164.38-25.15 165.31-23.9 166.23-22.65 167.71-21.7 169.18-20.75 170.83-19.85L170.83-19.85Q172.53-18.95 174.11-17.88 175.68-16.8 176.73-15.35 177.78-13.9 177.78-11.7L177.78-11.7Q177.78-9.4 176.53-7.23 175.28-5.05 173.13-3.38 170.98-1.7 168.21-0.7 165.43 0.3 162.38 0.3ZM191.23 10L191.23 10Q188.73 10 187.21 8.47 185.68 6.95 185.68 4.35L185.68 4.35Q185.68 3 186.16 1.38 186.63-0.25 187.73-2.05L187.73-2.05Q185.28-2.2 183.71-3.7 182.13-5.2 182.13-8.25L182.13-8.25Q182.13-10.05 182.61-12.13 183.08-14.2 183.53-16.03 183.98-17.85 183.98-18.85L183.98-18.85Q183.98-19.6 183.68-19.93 183.38-20.25 182.98-20.25L182.98-20.25Q182.58-20.25 182.11-19.93 181.63-19.6 181.38-18.95L181.38-18.95 180.53-19.85Q180.83-21.4 181.83-22.6 182.83-23.8 184.28-24.5 185.73-25.2 187.28-25.2L187.28-25.2Q189.03-25.2 190.33-24.08 191.63-22.95 191.63-20L191.63-20Q191.63-18.15 191.18-16.03 190.73-13.9 190.28-12.03 189.83-10.15 189.83-9.05L189.83-9.05Q189.83-8.05 190.26-7.58 190.68-7.1 191.23-7.1L191.23-7.1Q191.93-7.1 192.83-7.88 193.73-8.65 194.53-10.45 195.33-12.25 195.58-15.3L195.58-15.3Q195.68-16.25 195.73-17.73 195.78-19.2 195.83-20.48 195.88-21.75 195.88-22.05L195.88-22.05Q195.88-23.85 197.21-24.58 198.53-25.3 200.13-25.3L200.13-25.3Q201.53-25.3 202.78-24.75 204.03-24.2 204.48-22.9L204.48-22.9 204.58-22.6Q204.13-22.2 203.81-19.9 203.48-17.6 203.03-13.75L203.03-13.75Q202.73-11.25 202.28-8.1 201.83-4.95 201.06-1.78 200.28 1.4 199.01 4.08 197.73 6.75 195.83 8.38 193.93 10 191.23 10ZM190.03 4.25L190.03 4.25Q191.58 4.25 192.81 1.43 194.03-1.4 194.73-6.6L194.73-6.6Q191.53-2.5 190.33-0.15 189.13 2.2 189.13 3.25L189.13 3.25Q189.13 4.25 190.03 4.25ZM212.48 0.2L212.48 0.2Q210.68 0.2 209.25-1.28 207.83-2.75 207.83-5.35L207.83-5.35Q207.83-6.65 208.18-8.33 208.53-10 208.95-11.75 209.38-13.5 209.73-15.05 210.08-16.6 210.08-17.65L210.08-17.65Q210.08-18.5 209.68-19.03 209.28-19.55 208.63-19.55L208.63-19.55Q207.78-19.55 206.78-18.55L206.78-18.55 206.48-18.75Q206.43-19.55 206.83-20.65 207.23-21.75 208.13-22.78 209.03-23.8 210.48-24.5 211.93-25.2 213.93-25.2L213.93-25.2Q216.18-25.2 217.3-23.63 218.43-22.05 218.43-19.85L218.43-19.85Q218.43-19.6 218.43-19.33 218.43-19.05 218.38-18.8L218.38-18.8Q219.33-20.35 220.6-21.8 221.88-23.25 223.5-24.23 225.13-25.2 227.03-25.2L227.03-25.2Q229.48-25.2 230.43-23.63 231.38-22.05 231.38-20.05L231.38-20.05Q231.38-19.65 231.35-19.28 231.33-18.9 231.28-18.55L231.28-18.55Q232.33-20.1 233.6-21.63 234.88-23.15 236.53-24.18 238.18-25.2 240.33-25.2L240.33-25.2Q242.98-25.2 243.95-23.65 244.93-22.1 244.93-20L244.93-20Q244.93-18.15 244.48-15.78 244.03-13.4 243.58-11.1 243.13-8.8 243.13-7.2L243.13-7.2Q243.13-6.25 243.4-5.65 243.68-5.05 244.33-5.05L244.33-5.05Q244.88-5.05 245.35-5.38 245.83-5.7 246.03-6.15L246.03-6.15 246.43-6Q246.43-4.15 245.38-2.75 244.33-1.35 242.73-0.58 241.13 0.2 239.53 0.2L239.53 0.2Q237.58 0.2 236.1-1.1 234.63-2.4 234.63-5.4L234.63-5.4Q234.63-7.25 235.1-9.4 235.58-11.55 236.05-13.58 236.53-15.6 236.53-16.9L236.53-16.9Q236.53-18.75 235.23-18.75L235.23-18.75Q234.28-18.75 233.35-17.98 232.43-17.2 231.7-15.93 230.98-14.65 230.53-13.25 230.08-11.85 230.08-10.55L230.08-10.55Q230.08-9.35 230.35-7.93 230.63-6.5 230.63-5.2L230.63-5.2Q230.63-2.6 229.18-1.2 227.73 0.2 225.78 0.2L225.78 0.2Q223.98 0.2 222.55-1 221.13-2.2 221.13-4.6L221.13-4.6Q221.13-5.7 221.43-7.28 221.73-8.85 222.1-10.58 222.48-12.3 222.78-13.9 223.08-15.5 223.08-16.7L223.08-16.7Q223.08-17.65 222.8-18.2 222.53-18.75 221.73-18.75L221.73-18.75Q220.58-18.75 219.53-17.6 218.48-16.45 217.73-14.83 216.98-13.2 216.73-11.7L216.73-11.7Q216.68-11.35 216.65-11.15 216.63-10.95 216.63-10.95L216.63-10.95Q216.63-9.4 216.98-8.13 217.33-6.85 217.33-5.5L217.33-5.5Q217.33-3.05 215.85-1.43 214.38 0.2 212.48 0.2ZM253.43 10L253.43 10Q252.18 10 251.05 9.35 249.93 8.7 249.2 7.25 248.48 5.8 248.48 3.35L248.48 3.35Q248.48 1 249.1-1.75 249.73-4.5 250.53-7.28 251.33-10.05 251.95-12.55 252.58-15.05 252.58-17L252.58-17Q252.58-18.45 252.18-18.98 251.78-19.5 251.23-19.5L251.23-19.5Q250.73-19.5 250.23-19.2 249.73-18.9 249.38-18.5L249.38-18.5 249.03-18.7Q249.03-20.45 250.05-21.93 251.08-23.4 252.68-24.3 254.28-25.2 255.98-25.2L255.98-25.2Q257.63-25.2 258.63-24.38 259.63-23.55 260.15-22.25 260.68-20.95 260.78-19.45L260.78-19.45Q262.68-22.45 264.93-23.9 267.18-25.35 269.18-25.35L269.18-25.35Q271.88-25.35 273.75-22.8 275.63-20.25 275.63-14.9L275.63-14.9Q275.63-9.9 274.03-6.53 272.43-3.15 270-1.48 267.58 0.2 265.08 0.2L265.08 0.2Q262.93 0.2 261.1-1.07 259.28-2.35 258.28-4.8L258.28-4.8Q257.83-2.75 257.5-0.75 257.18 1.25 257.18 3.15L257.18 3.15Q257.18 4.2 257.3 5.2 257.43 6.2 257.73 7.2L257.73 7.2 257.73 7.5Q257.08 8.75 255.9 9.38 254.73 10 253.43 10ZM262.63-4.65L262.63-4.65Q263.83-4.65 264.73-5.6 265.63-6.55 266.28-8.08 266.93-9.6 267.25-11.35 267.58-13.1 267.58-14.75L267.58-14.75Q267.58-16.85 267.03-18.32 266.48-19.8 265.33-19.8L265.33-19.8Q263.88-19.8 262.08-16.88 260.28-13.95 259.28-8L259.28-8Q259.73-6.45 260.63-5.55 261.53-4.65 262.63-4.65ZM283.37 0.2L283.37 0.2Q281.22 0.2 279.92-1.25 278.62-2.7 278.62-5.2L278.62-5.2Q278.62-6.55 278.97-8.72 279.32-10.9 279.85-13.53 280.37-16.15 280.87-18.88 281.37-21.6 281.72-24.15 282.07-26.7 282.07-28.65L282.07-28.65Q282.07-31.1 281.42-32.2L281.42-32.2 281.42-32.5Q282.52-33.75 283.82-34.35 285.12-34.95 286.37-34.95L286.37-34.95Q288.27-34.95 289.62-33.6 290.97-32.25 290.97-29.55L290.97-29.55Q290.97-28.1 290.57-26 290.17-23.9 289.62-21.6 289.07-19.3 288.52-17.3L288.52-17.3Q289.47-19.15 291.05-20.98 292.62-22.8 294.65-24 296.67-25.2 298.87-25.2L298.87-25.2Q301.37-25.2 302.25-23.65 303.12-22.1 303.12-19.8L303.12-19.8Q303.12-17.7 302.67-15.33 302.22-12.95 301.77-10.78 301.32-8.6 301.32-7.15L301.32-7.15Q301.32-5.05 302.57-5.05L302.57-5.05Q303.12-5.05 303.55-5.38 303.97-5.7 304.17-6.1L304.17-6.1 304.52-5.85Q304.52-3.9 303.57-2.55 302.62-1.2 301.15-0.5 299.67 0.2 298.12 0.2L298.12 0.2Q296.07 0.2 294.42-1.18 292.77-2.55 292.77-5.65L292.77-5.65Q292.77-7.4 293.25-9.45 293.72-11.5 294.17-13.43 294.62-15.35 294.62-16.65L294.62-16.65Q294.62-18.35 293.42-18.35L293.42-18.35Q292.32-18.35 291.02-17.25 289.72-16.15 288.75-14.5 287.77-12.85 287.47-11.25L287.47-11.25Q287.37-10.85 287.37-10.3L287.37-10.3Q287.37-9.05 287.75-7.9 288.12-6.75 288.12-5.2L288.12-5.2Q288.12-2.9 286.92-1.35 285.72 0.2 283.37 0.2ZM318.07 0.35L318.07 0.35Q314.32 0.35 311.87-1.15 309.42-2.65 308.25-5.13 307.07-7.6 307.07-10.4L307.07-10.4Q307.07-13.05 308.05-15.7 309.02-18.35 310.9-20.53 312.77-22.7 315.47-24.03 318.17-25.35 321.67-25.35L321.67-25.35Q325.42-25.35 327.85-23.83 330.27-22.3 331.45-19.8 332.62-17.3 332.62-14.45L332.62-14.45Q332.62-11.85 331.67-9.22 330.72-6.6 328.85-4.42 326.97-2.25 324.27-0.95 321.57 0.35 318.07 0.35ZM319.42-3.9L319.42-3.9Q320.77-3.9 321.67-5.3 322.57-6.7 323.02-8.88 323.47-11.05 323.47-13.3L323.47-13.3Q323.47-15.3 323.1-17.07 322.72-18.85 321.97-19.98 321.22-21.1 320.02-21.1L320.02-21.1Q318.72-21.1 317.8-19.7 316.87-18.3 316.42-16.15 315.97-14 315.97-11.7L315.97-11.7Q315.97-9.7 316.35-7.93 316.72-6.15 317.47-5.03 318.22-3.9 319.42-3.9ZM341.37 0.15L341.37 0.15Q339.52 0.15 338.02-1.33 336.52-2.8 336.52-5.45L336.52-5.45Q336.52-6.75 336.87-8.4 337.22-10.05 337.64-11.75 338.07-13.45 338.42-14.95 338.77-16.45 338.77-17.4L338.77-17.4Q338.77-18.4 338.37-18.98 337.97-19.55 337.32-19.55L337.32-19.55Q336.47-19.55 335.47-18.55L335.47-18.55 335.17-18.75Q335.12-19.55 335.52-20.65 335.92-21.75 336.74-22.78 337.57-23.8 338.87-24.5 340.17-25.2 341.97-25.2L341.97-25.2Q344.62-25.2 345.89-23.68 347.17-22.15 347.17-19.95L347.17-19.95Q347.17-19.15 347.02-18.4L347.02-18.4Q348.07-19.95 349.62-21.53 351.17-23.1 353.04-24.15 354.92-25.2 356.92-25.2L356.92-25.2Q359.27-25.2 360.12-23.7 360.97-22.2 360.97-19.95L360.97-19.95Q360.97-17.85 360.52-15.45 360.07-13.05 359.62-10.83 359.17-8.6 359.17-7.1L359.17-7.1Q359.17-5.1 360.32-5.1L360.32-5.1Q360.92-5.1 361.37-5.48 361.82-5.85 361.97-6.2L361.97-6.2 362.32-6.05Q362.32-4.2 361.29-2.8 360.27-1.4 358.72-0.63 357.17 0.15 355.57 0.15L355.57 0.15Q353.62 0.15 352.12-1.2 350.62-2.55 350.62-5.6L350.62-5.6Q350.62-7.4 351.09-9.5 351.57-11.6 352.02-13.55 352.47-15.5 352.47-16.75L352.47-16.75Q352.47-17.5 352.19-17.93 351.92-18.35 351.22-18.35L351.22-18.35Q350.07-18.35 348.69-17.3 347.32-16.25 346.34-14.5 345.37-12.75 345.37-10.65L345.37-10.65Q345.37-9.3 345.69-8.05 346.02-6.8 346.02-5.35L346.02-5.35Q346.02-2.65 344.62-1.25 343.22 0.15 341.37 0.15ZM375.32 10L375.32 10Q372.82 10 371.29 8.47 369.77 6.95 369.77 4.35L369.77 4.35Q369.77 3 370.24 1.38 370.72-0.25 371.82-2.05L371.82-2.05Q369.37-2.2 367.79-3.7 366.22-5.2 366.22-8.25L366.22-8.25Q366.22-10.05 366.69-12.13 367.17-14.2 367.62-16.03 368.07-17.85 368.07-18.85L368.07-18.85Q368.07-19.6 367.77-19.93 367.47-20.25 367.07-20.25L367.07-20.25Q366.67-20.25 366.19-19.93 365.72-19.6 365.47-18.95L365.47-18.95 364.62-19.85Q364.92-21.4 365.92-22.6 366.92-23.8 368.37-24.5 369.82-25.2 371.37-25.2L371.37-25.2Q373.12-25.2 374.42-24.08 375.72-22.95 375.72-20L375.72-20Q375.72-18.15 375.27-16.03 374.82-13.9 374.37-12.03 373.92-10.15 373.92-9.05L373.92-9.05Q373.92-8.05 374.34-7.58 374.77-7.1 375.32-7.1L375.32-7.1Q376.02-7.1 376.92-7.88 377.82-8.65 378.62-10.45 379.42-12.25 379.67-15.3L379.67-15.3Q379.77-16.25 379.82-17.73 379.87-19.2 379.92-20.48 379.97-21.75 379.97-22.05L379.97-22.05Q379.97-23.85 381.29-24.58 382.62-25.3 384.22-25.3L384.22-25.3Q385.62-25.3 386.87-24.75 388.12-24.2 388.57-22.9L388.57-22.9 388.67-22.6Q388.22-22.2 387.89-19.9 387.57-17.6 387.12-13.75L387.12-13.75Q386.82-11.25 386.37-8.1 385.92-4.95 385.14-1.78 384.37 1.4 383.09 4.08 381.82 6.75 379.92 8.38 378.02 10 375.32 10ZM374.12 4.25L374.12 4.25Q375.67 4.25 376.89 1.43 378.12-1.4 378.82-6.6L378.82-6.6Q375.62-2.5 374.42-0.15 373.22 2.2 373.22 3.25L373.22 3.25Q373.22 4.25 374.12 4.25Z" opacity="1" transform="matrix(1,0,0,1,0,0)" fill="#e2725b" class="wordmark-text-0" data-fill-palette-color="primary" id="text-0"></path></svg></g></svg></g></svg></g></svg></g><g transform="matrix(1,0,0,1,157.60175428591003,0)"><svg viewBox="0 0 82.29409142817994 66.29397951332561" height="66.29397951332561" width="82.29409142817994"><g><svg xmlns="http://www.w3.org/2000/svg" xmlns:xlink="http://www.w3.org/1999/xlink" version="1.1" x="8" y="0" viewBox="2 2 48.000081031687145 48" enable-background="new 0 0 52 52" xml:space="preserve" height="66.29397951332561" width="66.29409142817994" class="icon-icon-0" data-fill-palette-color="accent" id="icon-0"><g fill="#e2725b" data-fill-palette-color="accent"><g fill="#e2725b" data-fill-palette-color="accent"><g fill="#e2725b" data-fill-palette-color="accent"><path d="M29.51 42H22.49A1.495 1.495 0 0 1 21.01 40.737C20.757 39.021 18.398 35.611 17.51 34.442A1 1 0 0 1 17.433 34.32C17.332 34.14 15 29.865 15 26.986 15 20.93 19.935 16 26 16S37 20.929 37 26.986C37 29.864 34.684 34.136 34.585 34.317A1 1 0 0 1 34.502 34.444C33.612 35.614 31.245 39.022 30.989 40.74A1.495 1.495 0 0 1 29.511 42M22.99 40.442V40.444zM22.9 40H29.1C29.715 37.542 32.367 33.953 32.865 33.294 33.491 32.129 35 28.914 35 26.986 35 22.031 30.963 18 26 18S17 22.031 17 26.986C17 28.918 18.52 32.132 19.15 33.294 19.641 33.947 22.287 37.54 22.9 40" fill="#e2725b" data-fill-palette-color="accent"></path></g></g><g fill="#e2725b" data-fill-palette-color="accent"><g fill="#e2725b" data-fill-palette-color="accent"><path d="M43 31H35.384A1 1 0 0 1 34.437 29.68C34.81 28.574 35 27.668 35 26.986 35 22.031 30.963 18 26 18S17 22.031 17 26.986C17 27.667 17.19 28.572 17.566 29.678A0.998 0.998 0 0 1 16.62 31H9C5.14 31 2 27.86 2 24 2 20.345 4.815 17.336 8.392 17.026A11.8 11.8 0 0 1 8 14C8 7.383 13.383 2 20 2 24.901 2 29.276 5.004 31.098 9.46A8.96 8.96 0 0 1 36 8C40.963 8 45 12.037 45 17 45 17.097 44.998 17.194 44.994 17.294A6.95 6.95 0 0 1 50 24C50 27.86 46.86 31 43 31M36.722 29H43C45.757 29 48 26.757 48 24A4.966 4.966 0 0 0 43.767 19.065 1 1 0 0 1 42.927 17.942C42.978 17.582 43 17.282 43 17 43 13.14 39.86 10 36 10A6.98 6.98 0 0 0 31.278 11.845 1.002 1.002 0 0 1 29.638 11.37 10.01 10.01 0 0 0 20 4C14.486 4 10 8.486 10 14 10 15.26 10.24 16.501 10.71 17.687A1 1 0 0 1 9.655 19.049 5 5 0 0 0 9 19C6.243 19 4 21.243 4 24S6.243 29 9 29H15.28C15.093 28.243 15 27.577 15 26.986 15 20.93 19.935 16 26 16S37 20.929 37 26.986C37 27.577 36.908 28.243 36.722 29" fill="#e2725b" data-fill-palette-color="accent"></path></g></g><g fill="#e2725b" data-fill-palette-color="accent"><g fill="#e2725b" data-fill-palette-color="accent"><path d="M30 50H22A1 1 0 0 1 21 49V41A1 1 0 0 1 22 40H30A1 1 0 0 1 31 41V49A1 1 0 0 1 30 50M23 48H29V42H23z" fill="#e2725b" data-fill-palette-color="accent"></path></g></g><g fill="#e2725b" data-fill-palette-color="accent"><g fill="#e2725b" data-fill-palette-color="accent"><path d="M32 46H20A1 1 0 1 1 20 44H32A1 1 0 1 1 32 46" fill="#e2725b" data-fill-palette-color="accent"></path></g></g></g></svg></g></svg></g><g><rect width="81.06863428591002" height="4.325947531040927" y="60.968031982284685" x="239.89584571408997" fill="#ffffff" data-fill-palette-color="secondary"></rect><rect width="81.06863428591002" height="4.325947531040927" y="60.968031982284685" x="76.53312" fill="#ffffff" data-fill-palette-color="secondary"></rect></g></svg></g><defs></defs></svg><rect width="395.52" height="140.53578252285308" fill="none" stroke="none" visibility="hidden"></rect></g></svg></g></svg>